<?xml version="1.0" encoding="utf-8"?>
<!-- Generator: Adobe Illustrator 24.1.2, SVG Export Plug-In . SVG Version: 6.00 Build 0)  -->
<svg version="1.1" id="Layer_1" xmlns="http://www.w3.org/2000/svg" xmlns:xlink="http://www.w3.org/1999/xlink" x="0px" y="0px"
	 viewBox="0 0 595.3 841.9" style="enable-background:new 0 0 595.3 841.9;" xml:space="preserve">
<style type="text/css">
	.st0{fill:none;stroke:#999;stroke-width:40;stroke-miterlimit:10;}
	.st0{stroke-dasharray: 500; stroke-dashoffset:0; animation:dash 3s linear forwards;animation-iteration-count: infinite;}
	.st1{fill:none;stroke:#999;stroke-width:38;stroke-miterlimit:10;}
	.st1{stroke-dasharray: 500; stroke-dashoffset:0; animation:dasha 3s linear forwards;animation-iteration-count: infinite;}
	.st2{fill:none;stroke:#999;stroke-width:33;stroke-miterlimit:10;}
	.st2{stroke-dasharray: 500; stroke-dashoffset:0; animation:dash 3s linear forwards; animation-iteration-count: infinite;}
	.st3{fill:none;stroke:#999;stroke-width:22;stroke-miterlimit:10;}
	.st3{stroke-dasharray: 500; stroke-dashoffset:0; animation:dash 3s linear forwards;animation-iteration-count: infinite;}

		@-webkit-keyframes dash{
	0%{
		stroke-dashoffset:500;
		
	}
	50%{
		stroke-dashoffset:0;
		
	}
	100%{
		stroke-dashoffset:-500;
		
	}
	}


		@-webkit-keyframes dasha{
	0%{
		stroke-dashoffset:-500;
		
	}
	50%{
		stroke-dashoffset:0;
		
	}
	100%{
		stroke-dashoffset:500;
		
	}
	}





</style>
<path class="st0" d="M210,391.4c20.4,9.7,47.6,19.8,80.5,24.7c79.1,11.8,142.9-13.2,171.8-27"/>
<path class="st1" d="M462.4,389.2c-37.2,15.6-98.1,46.7-156,106.3c-62.5,64.2-92.3,131.5-106.2,170.3"/>
<path class="st2" d="M274,708.2c-2.2-7.7-6.2-25.2-0.6-46.2c6.9-26.1,24.1-40.9,30.2-45.7"/>
<path class="st0" d="M466.5,626.8c-18,8.3-55.3,22.3-103.1,18.2c-35.1-3-62.1-14.5-78.2-23.1"/>
<path class="st0" d="M177.2,349.6c-21.8,21.1-47.2,50.4-69,89.3C56.6,531,56.5,621.1,59.5,664.3"/>
<path class="st0" d="M488.9,183.4C420.6,192.2,294.1,219.7,199,322c-14.9,16-27.7,32.5-38.7,48.8"/>
<path class="st0" d="M470.9,378.1c-83.2-85.8-214.7-87.2-287.9-19.5c-81.9,75.7-81,228.8,24.3,313.4"/>
<path class="st0" d="M461.7,367.7c9.8,11.6,62.5,76.4,49.6,161.9c-14.9,98.3-109,167.9-192.6,170c-21.5,0.5-39.8-3.4-53.4-7.7"/>
<path class="st3" d="M204.8,689.1c0.3-4.9,1-10.7,2.6-17.2c2-8,4.7-14.6,7.3-19.6"/>
</svg>
